<svg width="40" height="40" viewBox="0 0 40 40" fill="none" xmlns="http://www.w3.org/2000/svg">
<g clip-path="url(#clip0_7477_3220)">
<path d="M15.281 20.9013L13.6507 17.6406H11.0127L9.3824 20.9013V15.2811H7.02295V24.7189H10.1115L12.3317 20.2785L14.5519 24.7189H17.6405V15.2811H15.281V20.9013Z" fill="#2D5A61"/>
<path d="M20 15.2811H22.3595V24.7189H20V15.2811Z" fill="#2D5A61"/>
<path d="M30.6176 20.9013L27.8075 15.2811H24.719V24.7189H27.0784V19.0988L29.8885 24.7189H32.9771V15.2811H30.6176V20.9013Z" fill="#2D5A61"/>
<path d="M40 20L37.9501 16.4292L38.4828 12.3438L35.2165 9.83311L34.1424 5.85774L30.167 4.78364L27.6564 1.51729L23.571 2.04989L20 0L16.4292 2.04982L12.3438 1.51721L9.83311 4.78348L5.85766 5.85766L4.78356 9.83303L1.51721 12.3437L2.04982 16.4291L0 20L2.04982 23.5708L1.51721 27.6562L4.78348 30.1669L5.85758 34.1423L9.83295 35.2164L12.3436 38.4827L16.429 37.95L19.9999 39.9999L23.5707 37.95L27.6561 38.4827L30.1668 35.2164L34.1422 34.1423L35.2163 30.167L38.4826 27.6563L37.9499 23.5708L40 20ZM35.9674 26.6138L33.1465 28.782L32.2181 32.2182L28.782 33.1466L26.6137 35.9674L23.0865 35.5075L20 37.2794L16.9134 35.5076L13.3862 35.9675L11.218 33.1466L7.7818 32.2182L6.85343 28.782L4.03262 26.6138L4.49248 23.0866L2.72069 20.0001L4.49248 16.9135L4.03262 13.3863L6.85351 11.218L7.78188 7.78188L11.218 6.85351L13.3863 4.0327L16.9135 4.49256L20 2.72077L23.0866 4.49256L26.6138 4.0327L28.782 6.85359L32.2182 7.78195L33.1466 11.2181L35.9674 13.3864L35.5075 16.9136L37.2794 20L35.5076 23.0865L35.9674 26.6138Z" fill="#2D5A61"/>
</g>
<defs>
<clipPath id="clip0_7477_3220">
<rect width="40" height="40" fill="white"/>
</clipPath>
</defs>
</svg>
